<mxfile host="65bd71144e">
    <diagram id="4f7NsCC7xO6-pnkbEKnk" name="init-structure">
        <mxGraphModel dx="2533" dy="812" grid="0" gridSize="10" guides="1" tooltips="1" connect="1" arrows="1" fold="1" page="0" pageScale="1" pageWidth="827" pageHeight="1169" background="#ffffff" math="0" shadow="0">
            <root>
                <mxCell id="0"/>
                <mxCell id="1" parent="0"/>
                <mxCell id="CkfRkPzz57iH8riLH0XN-47" value="" style="rounded=0;whiteSpace=wrap;html=1;fontColor=#000000;labelBackgroundColor=#2A2A2A;" parent="1" vertex="1">
                    <mxGeometry x="-508" y="141" width="1241" height="461" as="geometry"/>
                </mxCell>
                <mxCell id="CkfRkPzz57iH8riLH0XN-8" style="edgeStyle=orthogonalEdgeStyle;rounded=0;orthogonalLoop=1;jettySize=auto;html=1;fontColor=#000000;endArrow=classic;endFill=1;startArrow=classic;startFill=1;entryX=0;entryY=0.5;entryDx=0;entryDy=0;entryPerimeter=0;" parent="1" source="CkfRkPzz57iH8riLH0XN-1" target="CkfRkPzz57iH8riLH0XN-29" edge="1">
                    <mxGeometry relative="1" as="geometry">
                        <mxPoint x="408" y="351.5" as="targetPoint"/>
                    </mxGeometry>
                </mxCell>
                <mxCell id="CkfRkPzz57iH8riLH0XN-17" value="Receive/Delete" style="edgeLabel;html=1;align=center;verticalAlign=middle;resizable=0;points=[];fontColor=#FFFFFF;fontStyle=1;fontSize=15;" parent="CkfRkPzz57iH8riLH0XN-8" vertex="1" connectable="0">
                    <mxGeometry x="0.2489" relative="1" as="geometry">
                        <mxPoint x="-19" y="-1" as="offset"/>
                    </mxGeometry>
                </mxCell>
                <mxCell id="CkfRkPzz57iH8riLH0XN-1" value="&lt;h3 style=&quot;font-size: 18px;&quot;&gt;SQS Queue&lt;/h3&gt;" style="outlineConnect=0;dashed=0;verticalLabelPosition=top;verticalAlign=middle;align=center;html=1;shape=mxgraph.aws3.sqs;fillColor=#D9A741;gradientColor=none;labelPosition=center;fontSize=18;" parent="1" vertex="1">
                    <mxGeometry x="199" y="305" width="76.5" height="93" as="geometry"/>
                </mxCell>
                <mxCell id="CkfRkPzz57iH8riLH0XN-7" style="edgeStyle=orthogonalEdgeStyle;rounded=0;orthogonalLoop=1;jettySize=auto;html=1;fontColor=#000000;exitX=1;exitY=0.5;exitDx=0;exitDy=0;exitPerimeter=0;" parent="1" source="CkfRkPzz57iH8riLH0XN-28" target="CkfRkPzz57iH8riLH0XN-1" edge="1">
                    <mxGeometry relative="1" as="geometry">
                        <mxPoint x="63" y="351.5" as="sourcePoint"/>
                    </mxGeometry>
                </mxCell>
                <mxCell id="CkfRkPzz57iH8riLH0XN-18" value="Send" style="edgeLabel;html=1;align=center;verticalAlign=middle;resizable=0;points=[];fontColor=#FFFFFF;fontStyle=1;labelBackgroundColor=default;fontSize=15;" parent="CkfRkPzz57iH8riLH0XN-7" vertex="1" connectable="0">
                    <mxGeometry x="0.0714" y="2" relative="1" as="geometry">
                        <mxPoint x="-5" y="1" as="offset"/>
                    </mxGeometry>
                </mxCell>
                <mxCell id="CkfRkPzz57iH8riLH0XN-10" style="edgeStyle=orthogonalEdgeStyle;rounded=0;orthogonalLoop=1;jettySize=auto;html=1;fontColor=#000000;exitX=0.5;exitY=1;exitDx=0;exitDy=0;exitPerimeter=0;entryX=0;entryY=0.5;entryDx=0;entryDy=0;entryPerimeter=0;" parent="1" source="CkfRkPzz57iH8riLH0XN-28" target="CkfRkPzz57iH8riLH0XN-33" edge="1">
                    <mxGeometry relative="1" as="geometry">
                        <mxPoint x="1.5" y="414" as="sourcePoint"/>
                        <mxPoint x="217.2213586455507" y="472.45703796832595" as="targetPoint"/>
                        <Array as="points">
                            <mxPoint x="8" y="484"/>
                            <mxPoint x="182" y="484"/>
                        </Array>
                    </mxGeometry>
                </mxCell>
                <mxCell id="CkfRkPzz57iH8riLH0XN-11" value="Create, Read, Delete" style="edgeLabel;html=1;align=center;verticalAlign=middle;resizable=0;points=[];fontColor=#FFFFFF;fontStyle=1;fontSize=15;" parent="CkfRkPzz57iH8riLH0XN-10" vertex="1" connectable="0">
                    <mxGeometry x="-0.662" y="-3" relative="1" as="geometry">
                        <mxPoint x="99" y="38" as="offset"/>
                    </mxGeometry>
                </mxCell>
                <mxCell id="CkfRkPzz57iH8riLH0XN-9" style="edgeStyle=orthogonalEdgeStyle;rounded=0;orthogonalLoop=1;jettySize=auto;html=1;fontColor=#000000;exitX=0.5;exitY=1;exitDx=0;exitDy=0;exitPerimeter=0;entryX=1;entryY=0.5;entryDx=0;entryDy=0;entryPerimeter=0;" parent="1" source="CkfRkPzz57iH8riLH0XN-29" target="CkfRkPzz57iH8riLH0XN-33" edge="1">
                    <mxGeometry relative="1" as="geometry">
                        <mxPoint x="469.5" y="414" as="sourcePoint"/>
                        <mxPoint x="257.2786413544495" y="472.45703796832595" as="targetPoint"/>
                        <Array as="points">
                            <mxPoint x="467" y="484"/>
                            <mxPoint x="282" y="484"/>
                        </Array>
                    </mxGeometry>
                </mxCell>
                <mxCell id="CkfRkPzz57iH8riLH0XN-12" value="Update" style="edgeLabel;html=1;align=center;verticalAlign=middle;resizable=0;points=[];fontColor=#FFFFFF;fontStyle=1;fontSize=15;" parent="CkfRkPzz57iH8riLH0XN-9" vertex="1" connectable="0">
                    <mxGeometry x="-0.6855" y="4" relative="1" as="geometry">
                        <mxPoint x="-106" y="41" as="offset"/>
                    </mxGeometry>
                </mxCell>
                <mxCell id="CkfRkPzz57iH8riLH0XN-26" style="rounded=0;orthogonalLoop=1;jettySize=auto;html=1;fontColor=#000000;startArrow=none;startFill=0;endArrow=classic;endFill=1;exitX=1;exitY=0.5;exitDx=0;exitDy=0;exitPerimeter=0;" parent="1" source="CkfRkPzz57iH8riLH0XN-29" target="CkfRkPzz57iH8riLH0XN-25" edge="1">
                    <mxGeometry relative="1" as="geometry">
                        <mxPoint x="531" y="351.5" as="sourcePoint"/>
                    </mxGeometry>
                </mxCell>
                <mxCell id="CkfRkPzz57iH8riLH0XN-27" value="Post" style="edgeLabel;html=1;align=center;verticalAlign=middle;resizable=0;points=[];fontColor=#000000;fontStyle=1" parent="CkfRkPzz57iH8riLH0XN-26" vertex="1" connectable="0">
                    <mxGeometry x="-0.3143" y="-1" relative="1" as="geometry">
                        <mxPoint x="6" y="-2" as="offset"/>
                    </mxGeometry>
                </mxCell>
                <mxCell id="CkfRkPzz57iH8riLH0XN-25" value="&lt;h3&gt;KAFKA Topic&lt;/h3&gt;" style="sketch=0;points=[[0,0,0],[0.25,0,0],[0.5,0,0],[0.75,0,0],[1,0,0],[0,1,0],[0.25,1,0],[0.5,1,0],[0.75,1,0],[1,1,0],[0,0.25,0],[0,0.5,0],[0,0.75,0],[1,0.25,0],[1,0.5,0],[1,0.75,0]];outlineConnect=0;fontColor=#232F3E;gradientColor=#945DF2;gradientDirection=north;fillColor=#5A30B5;strokeColor=#ffffff;dashed=0;verticalLabelPosition=top;verticalAlign=bottom;align=center;html=1;fontSize=12;fontStyle=0;aspect=fixed;shape=mxgraph.aws4.resourceIcon;resIcon=mxgraph.aws4.managed_streaming_for_kafka;labelPosition=center;" parent="1" vertex="1">
                    <mxGeometry x="597" y="313" width="78" height="78" as="geometry"/>
                </mxCell>
                <mxCell id="CkfRkPzz57iH8riLH0XN-28" value="&lt;h3 style=&quot;line-height: 0; font-size: 18px;&quot;&gt;Producer&lt;/h3&gt;" style="outlineConnect=0;dashed=0;verticalLabelPosition=top;verticalAlign=middle;align=center;html=1;shape=mxgraph.aws3.ec2;fillColor=#F58534;gradientColor=none;fontColor=#FFFFFF;labelPosition=center;fontSize=18;" parent="1" vertex="1">
                    <mxGeometry x="-30" y="305.5" width="76.5" height="93" as="geometry"/>
                </mxCell>
                <mxCell id="CkfRkPzz57iH8riLH0XN-29" value="Consumer" style="outlineConnect=0;dashed=0;verticalLabelPosition=top;verticalAlign=middle;align=center;shape=mxgraph.aws3.ec2;fillColor=#F58534;gradientColor=none;fontColor=#FFFFFF;labelPosition=center;fontStyle=1;labelBackgroundColor=none;labelBorderColor=none;spacingTop=0;spacing=0;fontSize=18;fontFamily=Tahoma;" parent="1" vertex="1">
                    <mxGeometry x="429" y="305.5" width="76.5" height="93" as="geometry"/>
                </mxCell>
                <mxCell id="CkfRkPzz57iH8riLH0XN-40" style="edgeStyle=none;rounded=0;orthogonalLoop=1;jettySize=auto;html=1;fontColor=#000000;startArrow=classic;startFill=1;endArrow=classic;endFill=1;" parent="1" source="CkfRkPzz57iH8riLH0XN-30" target="CkfRkPzz57iH8riLH0XN-39" edge="1">
                    <mxGeometry relative="1" as="geometry"/>
                </mxCell>
                <mxCell id="CkfRkPzz57iH8riLH0XN-30" value="&lt;h3&gt;APP&lt;/h3&gt;" style="outlineConnect=0;dashed=0;verticalLabelPosition=top;verticalAlign=bottom;align=center;html=1;shape=mxgraph.aws3.cloudfront;fillColor=#F58536;gradientColor=none;fontColor=#000000;labelPosition=center;" parent="1" vertex="1">
                    <mxGeometry x="-198" y="308.62" width="68" height="85.75" as="geometry"/>
                </mxCell>
                <mxCell id="CkfRkPzz57iH8riLH0XN-33" value="&lt;h3&gt;Mysql&lt;/h3&gt;" style="outlineConnect=0;dashed=0;verticalLabelPosition=top;verticalAlign=bottom;align=center;html=1;shape=mxgraph.aws3.rds;fillColor=#2E73B8;gradientColor=none;fontColor=#FFFFFF;labelPosition=center;" parent="1" vertex="1">
                    <mxGeometry x="201.25" y="443" width="72" height="81" as="geometry"/>
                </mxCell>
                <mxCell id="CkfRkPzz57iH8riLH0XN-38" style="edgeStyle=none;rounded=0;orthogonalLoop=1;jettySize=auto;html=1;entryX=1;entryY=0.5;entryDx=0;entryDy=0;entryPerimeter=0;fontColor=#000000;startArrow=classic;startFill=1;endArrow=classic;endFill=1;" parent="1" source="CkfRkPzz57iH8riLH0XN-28" target="CkfRkPzz57iH8riLH0XN-30" edge="1">
                    <mxGeometry relative="1" as="geometry">
                        <mxPoint x="-93" y="354.49864341085276" as="sourcePoint"/>
                    </mxGeometry>
                </mxCell>
                <mxCell id="CkfRkPzz57iH8riLH0XN-39" value="&lt;h3&gt;Route 53&lt;/h3&gt;" style="outlineConnect=0;dashed=0;verticalLabelPosition=top;verticalAlign=bottom;align=center;html=1;shape=mxgraph.aws3.route_53;fillColor=#F58536;gradientColor=none;fontColor=#000000;labelPosition=center;" parent="1" vertex="1">
                    <mxGeometry x="-347" y="311.75" width="66.5" height="79.25" as="geometry"/>
                </mxCell>
                <mxCell id="CkfRkPzz57iH8riLH0XN-42" style="edgeStyle=none;rounded=0;orthogonalLoop=1;jettySize=auto;html=1;fontColor=#000000;startArrow=classic;startFill=1;endArrow=classic;endFill=1;" parent="1" source="CkfRkPzz57iH8riLH0XN-41" target="CkfRkPzz57iH8riLH0XN-39" edge="1">
                    <mxGeometry relative="1" as="geometry"/>
                </mxCell>
                <mxCell id="CkfRkPzz57iH8riLH0XN-41" value="" style="points=[[0.13,0.02,0],[0.5,0,0],[0.87,0.02,0],[0.885,0.4,0],[0.985,0.985,0],[0.5,1,0],[0.015,0.985,0],[0.115,0.4,0]];verticalLabelPosition=bottom;sketch=0;html=1;verticalAlign=top;aspect=fixed;align=center;pointerEvents=1;shape=mxgraph.cisco19.laptop;fillColor=#f9f7ed;strokeColor=#36393d;" parent="1" vertex="1">
                    <mxGeometry x="-482" y="334.5" width="50" height="35" as="geometry"/>
                </mxCell>
                <mxCell id="CkfRkPzz57iH8riLH0XN-44" style="edgeStyle=none;rounded=0;orthogonalLoop=1;jettySize=auto;html=1;fontColor=#000000;startArrow=classic;startFill=1;endArrow=classic;endFill=1;" parent="1" source="CkfRkPzz57iH8riLH0XN-43" target="CkfRkPzz57iH8riLH0XN-39" edge="1">
                    <mxGeometry relative="1" as="geometry"/>
                </mxCell>
                <mxCell id="CkfRkPzz57iH8riLH0XN-43" value="" style="sketch=0;points=[[0.015,0.015,0],[0.985,0.015,0],[0.985,0.985,0],[0.015,0.985,0],[0.25,0,0],[0.5,0,0],[0.75,0,0],[1,0.25,0],[1,0.5,0],[1,0.75,0],[0.75,1,0],[0.5,1,0],[0.25,1,0],[0,0.75,0],[0,0.5,0],[0,0.25,0]];verticalLabelPosition=bottom;html=1;verticalAlign=top;aspect=fixed;align=center;pointerEvents=1;shape=mxgraph.cisco19.handheld;fillColor=#f9f7ed;strokeColor=#36393d;" parent="1" vertex="1">
                    <mxGeometry x="-475.75" y="401" width="37.5" height="50" as="geometry"/>
                </mxCell>
                <mxCell id="CkfRkPzz57iH8riLH0XN-46" style="edgeStyle=none;rounded=0;orthogonalLoop=1;jettySize=auto;html=1;entryX=0;entryY=0.27;entryDx=0;entryDy=0;entryPerimeter=0;fontColor=#000000;startArrow=classic;startFill=1;endArrow=classic;endFill=1;" parent="1" source="CkfRkPzz57iH8riLH0XN-45" target="CkfRkPzz57iH8riLH0XN-39" edge="1">
                    <mxGeometry relative="1" as="geometry"/>
                </mxCell>
                <mxCell id="CkfRkPzz57iH8riLH0XN-45" value="" style="points=[[0.03,0.03,0],[0.5,0,0],[0.97,0.03,0],[1,0.4,0],[0.97,0.745,0],[0.5,1,0],[0.03,0.745,0],[0,0.4,0]];verticalLabelPosition=bottom;sketch=0;html=1;verticalAlign=top;aspect=fixed;align=center;pointerEvents=1;shape=mxgraph.cisco19.workstation;fillColor=#f9f7ed;strokeColor=#36393d;" parent="1" vertex="1">
                    <mxGeometry x="-482" y="249" width="50" height="40" as="geometry"/>
                </mxCell>
                <mxCell id="NxF_aEjd7mD4jHGTERro-2" value="1 (Backend)" style="rounded=0;labelBackgroundColor=none;labelBorderColor=none;fontFamily=Tahoma;fontSize=25;verticalAlign=bottom;strokeWidth=4;dashed=1;fillColor=none;horizontal=1;labelPosition=center;verticalLabelPosition=top;align=center;fontStyle=1;html=1;" parent="1" vertex="1">
                    <mxGeometry x="-73.5" y="221" width="620.5" height="311" as="geometry"/>
                </mxCell>
            </root>
        </mxGraphModel>
    </diagram>
</mxfile>